<?xml version="1.0" encoding="utf-8"?>
<?xml-stylesheet type="text/xsl" href="rss1.xsl"?>
<rss version="2.0" xmlns:atom="http://www.w3.org/2005/Atom" xmlns:content="http://purl.org/rss/1.0/modules/content/" xmlns:dc="http://purl.org/dc/elements/1.1/" xmlns:media="http://search.yahoo.com/mrss/">
<channel>
 <title>Getty</title>
 <link>http://www.gettyimg.com/</link>
 <atom:link href="http://www.gettyimg.com/" rel="self" type="application/rss+xml" />

 
                <item>
                <title><![CDATA[【Interviews / TV shows / Others】WEB-RiP - Taylor Swift - Red Carpet (Grammy Awards 2023 - 1080P)]]></title>
                <link><![CDATA[https://sharemania.us/threads/taylor-swift-red-carpet-grammy-awards-2023-1080p.232892/]]></link>
                <description><![CDATA[<article>
<blockquote class="messageText SelectQuoteContainer ugc baseHtml">
Hi,<br>
<br>
Might interesting some of you. Imo, 4 minutes of pure beauty.<br>
<br>
<a href="https://postimg.cc/21yHLKVg" target="_blank" class="externalLink" rel="nofollow"><img src="https://i.postimg.cc/21yHLKVg/Taylor-Swift-Grammy-Awards-2023-Red-Carpet-mp4-thumbs-2023-11-26-20-30-57.jpg" class="bbCodeImage LbImage" alt="[​IMG]" data-url="https://i.postimg.cc/21yHLKVg/Taylor-Swift-Grammy-Awards-2023-Red-Carpet-mp4-thumbs-2023-11-26-20-30-57.jpg"></a><br>
<br>
<div class="ToggleTriggerAnchor bbCodeSpoilerContainer">
<button type="button" class="button bbCodeSpoilerButton ToggleTrigger Tooltip JsOnly" data-target="> .SpoilerTarget"><span>Spoiler: <span class="SpoilerTitle">Media Info</span></span></button>
<div class="SpoilerTarget bbCodeSpoilerText">
<div class="bbCodeBlock bbCodeCode">
<div class="type">Code:</div>
<pre>General
Complete name                  : F:\new2\Taylor Swift - Grammy Awards 2023 - Red Carpet.mp4
Format                         : MPEG-4
Format profile                 : Base Media
Codec ID                       : isom (isom/iso2/avc1/mp41)
File size                      : 234 MiB
Duration                       : 3 min 58 s
Overall bit rate mode          : Variable
Overall bit rate               : 8 244 kb/s
Writing application            : Lavf60.10.100

Video
ID                             : 1
Format                         : AVC
Format/Info                    : Advanced Video Codec
Format profile                 : High@L4
Format settings                : CABAC / 3 Ref Frames
Format settings, CABAC         : Yes
Format settings, Reference fra : 3 frames
Format settings, GOP           : M=3, N=90
Codec ID                       : avc1
Codec ID/Info                  : Advanced Video Coding
Duration                       : 3 min 58 s
Source duration                : 3 min 58 s
Bit rate mode                  : Constant
Bit rate                       : 8 048 kb/s
Width                          : 1 920 pixels
Height                         : 1 080 pixels
Display aspect ratio           : 16:9
Frame rate mode                : Variable
Frame rate                     : 29.970 (29970/1000) FPS
Minimum frame rate             : 20.833 FPS
Maximum frame rate             : 30.000 FPS
Original frame rate            : 30.000 FPS
Color space                    : YUV
Chroma subsampling             : 4:2:0
Bit depth                      : 8 bits
Scan type                      : Progressive
Bits/(Pixel*Frame)             : 0.129
Stream size                    : 229 MiB (98%)
Source stream size             : 229 MiB (98%)
Color range                    : Limited
Color primaries                : BT.709
Transfer characteristics       : BT.709
Matrix coefficients            : BT.709
Codec configuration box        : avcC

Audio
ID                             : 2
Format                         : AAC LC
Format/Info                    : Advanced Audio Codec Low Complexity
Codec ID                       : mp4a-40-2
Duration                       : 3 min 58 s
Bit rate mode                  : Variable
Bit rate                       : 192 kb/s
Channel(s)                     : 2 channels
Channel layout                 : L R
Sampling rate                  : 48.0 kHz
Frame rate                     : 46.875 FPS (1024 SPF)
Compression mode               : Lossy
Stream size                    : 5.38 MiB (2%)
Language                       : English
Default                        : Yes
Alternate group                : 1
</pre>
</div></div>
</div>
<div class="bbCodeBlock bbCodeVfcHH HiddenContent">
<div class="attribution type">Hidden Content:</div>
<blockquote>You must reply before you can see the hidden data contained here.</blockquote>
</div>
<div class="messageTextEndMarker">&nbsp;</div>
</blockquote>
</article>]]></description>
                <author><![CDATA[wasper]]></author>
                </item>

                
                <item>
                <title><![CDATA[【Albums (lossy)】Dolby Atmos - Laura Pausini - Primavera in anticipo / Primavera anticipada (Dolby Atmos) [E-AC3-JOC 5.1 768kbits 48kHz]]]></title>
                <link><![CDATA[https://sharemania.us/threads/laura-pausini-primavera-in-anticipo-primavera-anticipada-dolby-atmos-e-ac3-joc-5-1-768kbits-48khz.232891/]]></link>
                <description><![CDATA[<article>
<blockquote class="messageText SelectQuoteContainer ugc baseHtml">
<div style="text-align: center"><img src="https://i.discogs.com/JeVls8RiMYWBUjd0yjcXGhCLyYNaLMrt2F0ovOCFfCc/rs:fit/g:sm/q:90/h:600/w:600/czM6Ly9kaXNjb2dz/LWRhdGFiYXNlLWlt/YWdlcy9SLTc5NTQ1/NjAtMTQ1MjM2Njcx/NS0zMjA1LmpwZWc.jpeg" class="bbCodeImage LbImage" alt="[​IMG]" data-url="https://i.discogs.com/JeVls8RiMYWBUjd0yjcXGhCLyYNaLMrt2F0ovOCFfCc/rs:fit/g:sm/q:90/h:600/w:600/czM6Ly9kaXNjb2dz/LWRhdGFiYXNlLWlt/YWdlcy9SLTc5NTQ1/NjAtMTQ1MjM2Njcx/NS0zMjA1LmpwZWc.jpeg" style=""> <br>
<b>Source:</b> Tidal<br>
<b>Format: </b>m4a 5.1 channels<br>
​</div><b>TRACKLIST:</b><br>
01 Mille braccia<br>
02 Invece no<br>
03 Primavera in anticipo (It Is My Song) [with James Blunt]<br>
04 Nel modo più sincero che c'è<br>
05 Un fatto ovvio<br>
06 Il mio beneficio<br>
07 Prima che esci<br>
08 Più di ieri<br>
09 Bellissimo cosi<br>
10 L'impressione<br>
11 La geografia del mio cammino<br>
12 Ogni colore al cielo<br>
13 Primavera in anticipo<br>
14 Sorella terra<br>
15 Alzando nuestros brazos<br>
16 En cambio no<br>
17 Primavera anticipada (It Is My Song) [with James Blunt]<br>
18 Del modo más sincero<br>
19 Un hecho obvio<br>
20 Mis beneficios<br>
21 Antes de irte<br>
22 Más que ayer<br>
23 Bellisimo así<br>
24 La impresión<br>
25 La geografia de mi camino<br>
26 Cada color al cielo<br>
27 Primavera anticipada<br>
28 Hermana tierra<br>
29 Un tiempo en el que vivir<br>
30 Un giorno dove vivere<br>
<div style="text-align: center"><br>
<div class="bbCodeBlock bbCodeVfcHH HiddenContent">
<div class="attribution type">Hidden Content:</div>
<blockquote>You must reply before you can see the hidden data contained here.</blockquote>
</div></div>
<div class="messageTextEndMarker">&nbsp;</div>
</blockquote>
</article>]]></description>
                <author><![CDATA[msc93]]></author>
                </item>

                </channel></rss>